<svg width="398" height="397" viewBox="0 0 398 397" fill="none" xmlns="http://www.w3.org/2000/svg">
<rect width="195.33" height="209.432" rx="3" transform="matrix(-1 0 0 1 389.337 12.2383)" fill="white"/>
<path d="M194.007 12.2383V221.67H389.337" stroke="#1E212C" stroke-width="1.5"/>
<rect width="87.8607" height="15.4465" transform="matrix(-1 0 0 1 335.602 5.59863)" fill="#00F0B5"/>
<path d="M291.671 11.9014C288.379 11.9014 285.711 9.23715 285.711 5.95068C285.711 2.66421 288.379 0 291.671 0C294.963 0 297.632 2.66421 297.632 5.95068C297.632 9.23715 294.963 11.9014 291.671 11.9014Z" fill="#00F0B5"/>
<rect width="87.8607" height="15.4465" transform="matrix(-1 0 0 1 335.602 5.59863)" fill="#D7DADD"/>
<path d="M247.741 5.59766V21.0441H335.602" stroke="#1E212C" stroke-width="1.5"/>
<path d="M291.671 11.9014C288.379 11.9014 285.711 9.23715 285.711 5.95068C285.711 2.66421 288.379 0 291.671 0C294.963 0 297.632 2.66421 297.632 5.95068C297.632 9.23715 294.963 11.9014 291.671 11.9014Z" fill="#D7DADD"/>
<path d="M291.671 221.67V387.809" stroke="white" stroke-width="1.5"/>
<path d="M397.391 387.809H185.952" stroke="white" stroke-width="1.5"/>
<path d="M22.726 379.397V366.605L34.5535 377.429L38.4956 343.483L69.542 365.621L73.4841 350.862L84.3253 361.686V343.975L97.6307 359.717L109.458 324.296L124.242 360.726L145.925 333.643L162.187 370.541V352.83L171.55 370.049L177.957 346.926L195.697 374.477L222.801 340.531L231.178 373.985L239.063 364.638L244.977 387.809H17.3054L15.3346 378.905L22.726 379.397Z" fill="#00F0B5"/>
<path d="M257.812 387.81H2.50024" stroke="white" stroke-width="1.5"/>
<path d="M81.9212 151.505L138.046 147.821L152.581 205.054L185.952 386.661H140.53L145.82 377.196L81.9212 151.505Z" fill="#D7DADD"/>
<path d="M74.6183 376.642L71.858 273.302L116.023 281.569L105.769 386.661H68.0234L74.6183 376.642Z" fill="#B3B7BC"/>
<path d="M88.1555 276.353L116.023 281.569L114.793 294.175C91.6034 291.052 75.6327 284.835 75.6327 284.835L88.1555 276.353Z" fill="#1E212C"/>
<path d="M143.516 238.855C143.516 238.855 150.542 241.019 159.839 244.548L168.819 293.421C152.448 296.403 136.506 296.393 122.568 295.068L112.584 259.807L143.516 238.855Z" fill="#1E212C"/>
<path d="M143.515 152.633L198.788 267.055C198.788 267.055 133.233 301.5 68.0233 282.9V164.409L143.515 152.633Z" fill="#00F0B5"/>
<path d="M122.95 38.5591V47.0477C122.95 53.6114 118.462 59.327 112.077 60.8937L98.5463 64.2138V31.0251L109.797 28.2645C112.965 27.4871 116.315 28.2068 118.883 30.2163C121.45 32.2258 122.95 35.3021 122.95 38.5591L122.95 38.5591Z" fill="#D7DADD"/>
<path d="M122.95 47.0479C122.95 53.6116 118.462 59.3272 112.077 60.8939L98.5463 64.214" stroke="#1E212C" stroke-width="1.5"/>
<path d="M109.165 45.3634C108.804 45.3634 108.512 45.0717 108.512 44.712C108.512 44.3522 108.804 44.0605 109.165 44.0605C109.525 44.0605 109.817 44.3522 109.817 44.712C109.817 45.0717 109.525 45.3634 109.165 45.3634Z" fill="#1E212C"/>
<path d="M119.187 45.3634C118.827 45.3634 118.535 45.0717 118.535 44.712C118.535 44.3522 118.827 44.0605 119.187 44.0605C119.548 44.0605 119.84 44.3522 119.84 44.712C119.84 45.0717 119.548 45.3634 119.187 45.3634Z" fill="#1E212C"/>
<path d="M116.247 48.5985V38.5596H121.284" stroke="#1E212C" stroke-width="1.5"/>
<path d="M107.936 38.5605H112.974" stroke="#1E212C" stroke-width="1.5"/>
<path d="M100.154 43.7029V47.1891C99.2497 47.1891 98.3822 46.8303 97.7426 46.1918C97.103 45.5532 96.7437 44.6872 96.7437 43.7841C96.7437 43.6796 96.7483 43.5763 96.7576 43.4742C96.9487 41.3598 100.154 41.58 100.154 43.7029Z" fill="#E5E8ED"/>
<path d="M100.154 47.1892C99.2497 47.1892 98.3822 46.8304 97.7426 46.1919C97.103 45.5533 96.7437 44.6872 96.7437 43.7842" stroke="#1E212C" stroke-width="1.5"/>
<path d="M113.492 49.7715C112.61 50.652 111.18 50.652 110.298 49.7715" stroke="#1E212C" stroke-width="1.5" stroke-linecap="round" stroke-linejoin="round"/>
<path d="M116.247 48.6066L114.044 49.1472" stroke="#1E212C" stroke-width="1.5" stroke-linecap="round"/>
<path d="M118.535 59.0432L118.922 59.2193C121.432 60.3626 124.355 60.1291 126.65 58.6022C128.945 57.0752 130.287 54.4719 130.196 51.7197C129.754 39.0564 126.77 21.4878 113.493 22.7451C113.493 22.7451 100.005 19.6591 94.5991 32.0599C89.1934 44.4607 95.8242 50.4315 98.5471 51.8094" stroke="white" stroke-width="1.5"/>
<path d="M123.237 41.9954C123.237 41.9954 113.052 40.2122 111.896 33.3994C111.896 33.3994 106.85 41.8374 99.8089 42.6513" stroke="white" stroke-width="1.5"/>
<path d="M143.516 99.4316V152.632L68.0237 171.156V111.905C68.0237 90.8954 82.3906 72.6003 102.827 67.5858H102.827C112.628 65.181 122.992 67.4073 130.934 73.6236C138.876 79.8399 143.516 89.3561 143.516 99.4315L143.516 99.4316Z" fill="#D7DADD"/>
<path d="M198.788 267.055C198.788 267.055 133.233 301.5 68.0233 282.899" stroke="#1E212C" stroke-width="1.5"/>
<path d="M88.2826 73.9941C88.2826 73.9941 51.2941 99.8161 51.1552 138.27C50.9535 194.151 137.888 143.782 140.701 134.596L143.515 125.41C143.515 125.41 155.128 120.636 152.368 118.889C149.607 117.143 68.023 134.443 68.023 134.443" stroke="white" stroke-width="1.5"/>
<path d="M130.2 73.9941C130.2 73.9941 151.448 89.1262 160.189 128.625C160.189 128.625 174.451 108.9 179.511 101.31C184.572 93.7191 188.712 98.7713 188.712 98.7713C188.712 98.7713 194.602 90.0448 198.788 93.7191C202.974 97.3935 191.777 160.408 150.91 167.94" stroke="white" stroke-width="1.5"/>
<path d="M147.431 123.695L233.031 81.625" stroke="#00F0B5" stroke-width="1.5"/>
<path d="M309.06 57.0254C285.511 57.0254 266.42 76.0843 266.42 99.5947C266.42 123.105 285.511 142.164 309.06 142.164C332.61 142.164 351.701 123.105 351.701 99.5947H309.06V57.0254Z" fill="#D7DADD"/>
<path d="M266.42 99.5947C266.42 123.105 285.511 142.164 309.06 142.164C332.61 142.164 351.701 123.105 351.701 99.5947" stroke="#1E212C" stroke-width="1.5"/>
<path d="M351.701 99.5947H309.061L343.379 124.861C348.797 117.549 351.715 108.69 351.701 99.5947Z" fill="#1E212C"/>
<path d="M309.061 44.1514V99.595H364.597C364.597 84.8904 358.746 70.7881 348.331 60.3904C337.916 49.9927 323.79 44.1514 309.061 44.1514Z" fill="#00F0B5"/>
<path d="M309.061 99.5952H364.597" stroke="#1E212C" stroke-width="1.5"/>
<rect width="26.5544" height="26.5102" transform="matrix(1 0 0 -1 306.49 199.781)" fill="#D7DADD"/>
<path d="M299.21 175.269L319.767 154.745L340.325 175.269H299.21Z" fill="#D7DADD"/>
<rect width="23.0147" height="22.9763" transform="matrix(1 0 0 -1 258.677 199.819)" fill="#9A9CA5"/>
<path d="M252.366 178.574L270.184 160.786L288.001 178.574H252.366Z" fill="#9A9CA5"/>
<rect width="15.6383" height="15.6123" transform="matrix(1 0 0 -1 221.229 199.999)" fill="#1E212C"/>
<path d="M216.942 185.563L229.049 173.477L241.155 185.563H216.942Z" fill="#1E212C"/>
</svg>
